<svg xmlns="http://www.w3.org/2000/svg" viewBox="0 0 128 128">
  <defs>
    <linearGradient id="bg" x1="0" y1="0" x2="1" y2="1">
      <stop offset="0%" stop-color="#1a56db"/>
      <stop offset="100%" stop-color="#1e40af"/>
    </linearGradient>
  </defs>
  <!-- 背景圆角矩形 -->
  <rect x="4" y="4" width="120" height="120" rx="28" ry="28" fill="url(#bg)"/>
  <!-- 电视屏幕 -->
  <rect x="24" y="28" width="80" height="56" rx="8" ry="8" fill="white" opacity="0.95"/>
  <!-- 屏幕支架 -->
  <rect x="52" y="86" width="24" height="8" rx="2" ry="2" fill="white" opacity="0.7"/>
  <rect x="46" y="96" width="36" height="4" rx="2" ry="2" fill="white" opacity="0.5"/>
  <!-- 新闻文字线条 -->
  <rect x="34" y="38" width="40" height="6" rx="3" ry="3" fill="#1e40af"/>
  <rect x="34" y="50" width="55" height="4" rx="2" ry="2" fill="#3b82f6" opacity="0.7"/>
  <rect x="34" y="58" width="48" height="4" rx="2" ry="2" fill="#3b82f6" opacity="0.5"/>
  <rect x="34" y="66" width="52" height="4" rx="2" ry="2" fill="#3b82f6" opacity="0.4"/>
  <rect x="34" y="74" width="35" height="4" rx="2" ry="2" fill="#3b82f6" opacity="0.3"/>
  <!-- 播放三角 -->
  <polygon points="78,56 78,64 86,60" fill="#1e40af"/>
</svg>
